<?xml version="1.0" encoding="utf-8"?>
<!-- Generator: Adobe Illustrator 22.1.0, SVG Export Plug-In . SVG Version: 6.00 Build 0)  -->
<svg version="1.1" id="Слой_1" xmlns="http://www.w3.org/2000/svg" xmlns:xlink="http://www.w3.org/1999/xlink" x="0px" y="0px"
	 viewBox="0 0 26 32" style="enable-background:new 0 0 26 32;" xml:space="preserve">
<style type="text/css">
	.st0{fill:#FFFFFF;stroke:#C1C1C1;stroke-miterlimit:10;}
</style>
<path id="Home" class="st0" d="M13,3.7l10,10V29h-5v-7c0-1.1-0.9-2-2-2h-6c-1.1,0-2,0.9-2,2v7H3V13.7L13,3.7 M13.9,0.4
	c-0.5-0.5-1.3-0.5-1.8,0c0,0,0,0,0,0L0.6,11.9C0.2,12.3,0,12.8,0,13.3V30c0,1.1,0.9,2,2,2h7c1.1,0,2-0.9,2-2v-7h4v7c0,1.1,0.9,2,2,2
	h7c1.1,0,2-0.9,2-2V13.3c0-0.5-0.2-1-0.6-1.4L13.9,0.4z"/>
</svg>
